# xmcd
#
# Track frame offsets: 
#        183
#        18415
#        43968
#        61560
#
# Disc length: 1172 seconds
#
# Revision: 3
# Processed by: cddbd v1.5.2PL0 Copyright (c) Steve Scherf et al.
# Submitted via: ExactAudioCopy v0.99pb4
#
DISCID=2a049204
DTITLE=Summer,Donna - Love To Love You Baby
DYEAR=1975
DGENRE=Funk
TTITLE0=Love To Love You Baby
TTITLE1=I Feel Love
TTITLE2=Bad Girls
TTITLE3=On The Radio
EXTD=
EXTT0=
EXTT1=
EXTT2=
EXTT3=
PLAYORDER=
